<svg width="46" height="46" viewBox="0 0 46 46" fill="none" xmlns="http://www.w3.org/2000/svg">
<path fill-rule="evenodd" clip-rule="evenodd" d="M30 5H5V37H26V46H5C2.23858 46 0 43.7614 0 41V5C0 2.23858 2.23858 0 5 0H30C32.7614 0 35 2.23858 35 5V11H30V5ZM17.5 44C18.8807 44 20 42.8807 20 41.5C20 40.1193 18.8807 39 17.5 39C16.1193 39 15 40.1193 15 41.5C15 42.8807 16.1193 44 17.5 44Z" fill="white"/>
<path fill-rule="evenodd" clip-rule="evenodd" d="M44 12C45.1046 12 46 12.8954 46 14V44C46 45.1046 45.1046 46 44 46H29C28.2597 46 27.6134 45.5978 27.2676 45L27 14C27 12.8954 27.8954 12 29 12H44ZM44 37V19H29V37H44ZM35 16H39C39.5523 16 40 15.5523 40 15C40 14.4477 39.5523 14 39 14H35C34.4477 14 34 14.4477 34 15C34 15.5523 34.4477 16 35 16ZM39 42C39 43.1046 38.1046 44 37 44C35.8954 44 35 43.1046 35 42C35 40.8954 35.8954 40 37 40C38.1046 40 39 40.8954 39 42Z" fill="white"/>
</svg>
